<?xml version="1.0" encoding="utf-8"?>
<!-- Generator: Adobe Illustrator 16.0.0, SVG Export Plug-In . SVG Version: 6.00 Build 0)  -->
<!DOCTYPE svg PUBLIC "-//W3C//DTD SVG 1.1//EN" "http://www.w3.org/Graphics/SVG/1.1/DTD/svg11.dtd">
<svg version="1.1" id="Capa_1" xmlns="http://www.w3.org/2000/svg" xmlns:xlink="http://www.w3.org/1999/xlink" x="0px" y="0px"
	 width="50px" height="50px" viewBox="0 0 50 50" enable-background="new 0 0 50 50" xml:space="preserve">
<path fill="#1524D9" d="M50,39.285c0,1.633-1.323,2.956-2.955,2.956H2.956C1.323,42.241,0,40.918,0,39.285V10.714
	c0-1.632,1.323-2.956,2.956-2.956h44.089c1.632,0,2.955,1.323,2.955,2.956V39.285L50,39.285z"/>
<path fill="#FFFFFF" d="M14.509,29.089H9.924l-0.893,3.079H5.398l4.711-14.016h4.361l4.711,14.016h-3.789L14.509,29.089z
	 M10.615,26.525h3.195l-1.554-5.401h-0.078L10.615,26.525z"/>
<path fill="#FFFFFF" d="M41.445,32.168v-5.643h-5.586v5.643h-3.564V18.152h3.564v5.498h5.586v-5.498H45v14.016H41.445z"/>
<g>
	<path fill="#FFFFFF" d="M22.208,31.273c-1.123-0.598-2.005-1.429-2.647-2.493c-0.642-1.065-0.962-2.272-0.962-3.62
		s0.321-2.554,0.962-3.62s1.524-1.896,2.647-2.493c1.123-0.597,2.391-0.895,3.802-0.895c1.232,0,2.343,0.218,3.331,0.654
		c0.989,0.437,1.81,1.065,2.465,1.887l-2.427,2.195c-0.873-1.053-1.932-1.579-3.177-1.579c-0.731,0-1.383,0.161-1.954,0.481
		c-0.571,0.321-1.014,0.773-1.328,1.357c-0.315,0.584-0.472,1.254-0.472,2.012c0,0.758,0.157,1.428,0.472,2.012
		c0.314,0.585,0.757,1.037,1.328,1.358c0.571,0.32,1.223,0.479,1.954,0.479c1.245,0,2.304-0.525,3.177-1.578l2.427,2.195
		c-0.655,0.821-1.476,1.451-2.465,1.887c-0.988,0.437-2.099,0.654-3.331,0.654C24.598,32.168,23.331,31.87,22.208,31.273z"/>
</g>
</svg>
