<?xml version="1.0" encoding="utf-8"?>
<!-- Generator: Adobe Illustrator 16.0.0, SVG Export Plug-In . SVG Version: 6.00 Build 0)  -->
<!DOCTYPE svg PUBLIC "-//W3C//DTD SVG 1.1//EN" "http://www.w3.org/Graphics/SVG/1.1/DTD/svg11.dtd">
<svg version="1.1" id="Layer_1" xmlns="http://www.w3.org/2000/svg" xmlns:xlink="http://www.w3.org/1999/xlink" x="0px" y="0px"
	 width="12px" height="12px" viewBox="0 0 12 12" enable-background="new 0 0 12 12" xml:space="preserve">
<path fill="#4E4E4F" d="M3.059,10.635c0.025,0.236,0.243,0.428,0.481,0.428h4.918c0.238,0,0.455-0.191,0.48-0.428l0.848-7.77H2.211
	L3.059,10.635z M7.236,9.83l0.707-5.807C7.967,3.827,8.146,3.687,8.348,3.71c0.197,0.024,0.338,0.203,0.314,0.4L7.957,9.918
	c-0.023,0.184-0.18,0.316-0.359,0.316c-0.016,0-0.029-0.002-0.043-0.004C7.354,10.207,7.213,10.029,7.236,9.83 M5.652,4.03
	c0-0.199,0.162-0.36,0.363-0.36c0.199,0,0.361,0.161,0.361,0.36v5.845c0,0.197-0.162,0.359-0.361,0.359
	c-0.201,0-0.363-0.162-0.363-0.359V4.03z M3.682,3.71c0.198-0.023,0.38,0.117,0.403,0.313L4.792,9.83
	c0.022,0.199-0.117,0.377-0.317,0.4c-0.015,0.002-0.029,0.004-0.043,0.004c-0.181,0-0.336-0.133-0.359-0.316L3.367,4.11
	C3.343,3.913,3.484,3.734,3.682,3.71 M10.035,2.435H1.964c0-0.431,0.263-0.78,0.589-0.78h2.454V1.385V1.037
	c0-0.055,0.063-0.1,0.145-0.1h1.696c0.08,0,0.145,0.045,0.145,0.1v0.348v0.271h2.455C9.771,1.655,10.035,2.004,10.035,2.435"/>
</svg>
