<?xml version="1.0" encoding="utf-8"?>
<!-- Generator: Adobe Illustrator 16.0.0, SVG Export Plug-In . SVG Version: 6.00 Build 0)  -->
<!DOCTYPE svg PUBLIC "-//W3C//DTD SVG 1.1//EN" "http://www.w3.org/Graphics/SVG/1.1/DTD/svg11.dtd">
<svg version="1.1" id="Capa_1" xmlns="http://www.w3.org/2000/svg" xmlns:xlink="http://www.w3.org/1999/xlink" x="0px" y="0px"
	 width="50px" height="50px" viewBox="0 0 50 50" enable-background="new 0 0 50 50" xml:space="preserve">
<path fill="#0069AA" d="M50,39.285c0,1.633-1.323,2.956-2.955,2.956H2.956C1.323,42.241,0,40.918,0,39.285V10.714
	c0-1.632,1.323-2.956,2.956-2.956h44.089c1.632,0,2.955,1.323,2.955,2.956V39.285L50,39.285z"/>
<path opacity="0.15" fill="#202121" enable-background="new    " d="M2.101,39.285V10.714c0-1.632,1.324-2.956,2.956-2.956H2.956
	C1.323,7.759,0,9.083,0,10.714v28.571c0,1.633,1.323,2.956,2.956,2.956h2.102C3.425,42.241,2.101,40.918,2.101,39.285z"/>
<g>
	<path fill="#FFFFFF" d="M14.813,24.914c0,3.066,1.879,5.638,4.55,6.627V18.287C16.693,19.276,14.813,21.847,14.813,24.914z"/>
	<path fill="#FFFFFF" d="M28.957,24.914c0-3.067-1.879-5.638-4.55-6.627v13.254C27.078,30.552,28.957,27.882,28.957,24.914z"/>
	<path fill="#FFFFFF" d="M34.818,14.753c-0.008-0.009-0.018-0.017-0.025-0.027c-0.168-0.104-0.338-0.203-0.51-0.3
		c-1.545-0.893-3.277-1.475-5.081-1.687c-0.478-0.089-0.955-0.09-1.431-0.09h-0.1h-5.737h-0.099
		c-6.825,0-12.365,5.045-12.365,12.365c0,2.967,1.089,5.736,2.968,7.813l0.163,0.166c2.269,2.564,5.607,4.187,9.332,4.187h5.736
		c6.727,0,12.859-5.44,12.859-12.165C40.469,20.524,38.139,16.893,34.818,14.753z M21.981,36.296
		c-6.286,0-11.381-5.096-11.381-11.382s5.095-11.381,11.381-11.381s11.382,5.095,11.382,11.381S28.268,36.296,21.981,36.296z"/>
</g>
</svg>
