<?xml version="1.0" encoding="utf-8"?>
<!-- Generator: Adobe Illustrator 16.0.0, SVG Export Plug-In . SVG Version: 6.00 Build 0)  -->
<!DOCTYPE svg PUBLIC "-//W3C//DTD SVG 1.1//EN" "http://www.w3.org/Graphics/SVG/1.1/DTD/svg11.dtd">
<svg version="1.1" id="Layer_1" xmlns="http://www.w3.org/2000/svg" xmlns:xlink="http://www.w3.org/1999/xlink" x="0px" y="0px"
	 width="12px" height="12px" viewBox="0 0 12 12" enable-background="new 0 0 12 12" xml:space="preserve">
<path fill="#4E4E4F" d="M7.135,6.48C7.041,6.7,6.885,6.889,6.688,7.022c-0.198,0.134-0.433,0.211-0.69,0.211
	c-0.171,0-0.332-0.034-0.479-0.097c-0.221-0.094-0.41-0.25-0.543-0.447S4.765,6.256,4.765,6V5.998c0-0.17,0.034-0.331,0.096-0.479
	c0.094-0.221,0.25-0.41,0.448-0.543c0.197-0.133,0.432-0.21,0.688-0.21c0.173,0,0.334,0.034,0.481,0.097
	c0.22,0.093,0.409,0.25,0.542,0.447C7.153,5.507,7.23,5.744,7.23,6C7.23,6.17,7.196,6.332,7.135,6.48 M11.026,5.979V5.967
	c-0.001-0.008-0.002-0.014-0.003-0.023c-0.001-0.002-0.001-0.005-0.001-0.007c-0.002-0.009-0.004-0.017-0.006-0.022l-0.003-0.01
	c-0.001-0.006-0.004-0.013-0.006-0.02c-0.002-0.004-0.002-0.008-0.004-0.01c-0.002-0.006-0.005-0.011-0.007-0.016l-0.009-0.018
	c-0.001-0.002-0.004-0.006-0.006-0.008c-0.003-0.008-0.007-0.014-0.011-0.021c-0.001-0.002-0.004-0.005-0.006-0.009
	c-0.004-0.006-0.009-0.012-0.015-0.018L10.95,5.785L9.648,4.214C9.529,4.072,9.317,4.052,9.175,4.17
	c-0.144,0.12-0.163,0.331-0.044,0.474l0.845,1.019H7.874C7.849,5.522,7.809,5.385,7.755,5.257C7.609,4.916,7.367,4.625,7.063,4.419
	C6.849,4.274,6.601,4.17,6.334,4.125V2.022l1.023,0.85C7.501,2.99,7.713,2.97,7.831,2.828C7.949,2.685,7.93,2.472,7.786,2.354
	L6.218,1.051C6.217,1.05,6.217,1.05,6.216,1.05C6.21,1.044,6.202,1.042,6.196,1.037C6.193,1.035,6.191,1.032,6.188,1.03
	C6.183,1.026,6.177,1.022,6.17,1.02C6.166,1.018,6.163,1.014,6.159,1.012C6.153,1.009,6.148,1.007,6.144,1.004
	C6.139,1.002,6.134,1,6.13,1C6.126,0.998,6.12,0.997,6.116,0.995C6.109,0.992,6.104,0.99,6.098,0.988
	C6.095,0.987,6.092,0.986,6.089,0.985C6.082,0.984,6.073,0.981,6.066,0.98c-0.004,0-0.006-0.001-0.009-0.001
	C6.05,0.978,6.043,0.977,6.034,0.976H6.021C6.016,0.975,6.009,0.975,6.003,0.975c-0.008,0-0.014,0-0.02,0.001H5.971
	C5.963,0.977,5.956,0.978,5.947,0.979c-0.004,0-0.006,0.001-0.009,0.001C5.932,0.981,5.924,0.984,5.917,0.985
	C5.913,0.986,5.91,0.987,5.906,0.988C5.901,0.99,5.896,0.992,5.888,0.995C5.885,0.997,5.88,0.998,5.877,1
	C5.87,1,5.866,1.002,5.861,1.004c-0.005,0.003-0.01,0.005-0.016,0.008C5.843,1.014,5.839,1.018,5.836,1.02
	C5.828,1.022,5.822,1.026,5.816,1.03C5.813,1.032,5.812,1.035,5.809,1.037C5.802,1.042,5.796,1.044,5.79,1.05
	c-0.002,0-0.002,0-0.002,0.001l-1.57,1.302C4.075,2.472,4.056,2.685,4.174,2.828C4.293,2.97,4.505,2.99,4.647,2.873L5.66,2.03v2.094
	C5.52,4.149,5.384,4.189,5.256,4.244c-0.343,0.145-0.634,0.386-0.838,0.69C4.271,5.149,4.17,5.397,4.122,5.664H2.024l0.845-1.019
	C2.987,4.501,2.968,4.291,2.824,4.17C2.683,4.052,2.471,4.072,2.352,4.214L1.049,5.785L1.048,5.787
	c-0.004,0.006-0.01,0.012-0.015,0.018C1.031,5.809,1.03,5.812,1.028,5.813C1.024,5.82,1.021,5.826,1.017,5.834
	C1.016,5.836,1.013,5.84,1.011,5.842C1.008,5.848,1.006,5.854,1.004,5.859c-0.003,0.005-0.005,0.01-0.007,0.016
	c-0.003,0.002-0.004,0.006-0.005,0.01C0.99,5.892,0.987,5.898,0.985,5.904C0.984,5.907,0.984,5.91,0.984,5.914
	C0.981,5.92,0.979,5.928,0.978,5.937c0,0.002,0,0.005-0.001,0.007c-0.001,0.01-0.002,0.016-0.002,0.023
	C0.974,5.971,0.974,5.976,0.974,5.979c0,0.007-0.001,0.015-0.001,0.021s0.001,0.012,0.001,0.018c0,0.005,0,0.01,0.001,0.015
	c0,0.007,0,0.015,0.002,0.021c0,0.004,0.001,0.008,0.001,0.011c0.002,0.008,0.004,0.015,0.006,0.022
	c0.001,0.002,0.001,0.006,0.002,0.008c0.002,0.008,0.005,0.014,0.006,0.02c0.002,0.006,0.003,0.01,0.006,0.012
	c0.002,0.006,0.004,0.01,0.006,0.014c0.003,0.007,0.005,0.013,0.008,0.018c0.002,0.004,0.004,0.008,0.006,0.01
	c0.004,0.006,0.008,0.014,0.012,0.02C1.03,6.188,1.031,6.191,1.033,6.193C1.038,6.2,1.044,6.207,1.048,6.213
	c0,0,0.001,0,0.001,0.002l1.303,1.57c0.119,0.141,0.331,0.162,0.473,0.043c0.144-0.119,0.163-0.33,0.045-0.473l-0.845-1.02h2.098
	c0.024,0.141,0.064,0.277,0.119,0.405c0.145,0.343,0.388,0.634,0.69,0.839C5.146,7.726,5.395,7.828,5.66,7.875v2.098L4.643,9.127
	C4.5,9.01,4.288,9.029,4.17,9.172C4.05,9.315,4.069,9.527,4.213,9.646l1.569,1.302c0.001,0.001,0.002,0.001,0.002,0.002
	c0.007,0.006,0.013,0.01,0.019,0.014c0.004,0.002,0.007,0.004,0.009,0.006c0.007,0.004,0.013,0.008,0.02,0.012
	c0.004,0.002,0.007,0.004,0.011,0.006c0.005,0.003,0.01,0.006,0.015,0.008C5.861,10.998,5.866,11,5.87,11
	c0.006,0.002,0.01,0.004,0.014,0.004c0.006,0.004,0.012,0.006,0.018,0.008c0.003,0,0.007,0,0.009,0.002
	c0.01,0.002,0.017,0.004,0.024,0.006c0.002,0,0.005,0.001,0.008,0.001c0.008,0.001,0.017,0.003,0.023,0.004h0.013
	c0.006,0.001,0.013,0.001,0.019,0.001c0.008,0,0.013,0,0.02-0.001h0.013c0.007-0.001,0.017-0.003,0.023-0.004
	c0.003,0,0.006-0.001,0.009-0.001c0.007-0.002,0.015-0.004,0.022-0.006c0.004-0.002,0.006-0.002,0.009-0.002
	c0.007-0.002,0.013-0.004,0.019-0.008c0.004,0,0.008-0.002,0.014-0.004c0.005,0,0.009-0.002,0.014-0.006
	c0.006-0.002,0.01-0.005,0.015-0.008c0.004-0.002,0.007-0.004,0.012-0.006c0.007-0.004,0.012-0.008,0.019-0.012
	c0.003-0.002,0.005-0.004,0.009-0.006c0.006-0.004,0.012-0.008,0.019-0.014c0.001-0.001,0.002-0.001,0.002-0.002l1.569-1.302
	c0.144-0.118,0.162-0.33,0.044-0.474C7.708,9.029,7.495,9.01,7.354,9.127l-1.02,0.846V7.875C6.476,7.851,6.61,7.811,6.739,7.756
	c0.343-0.145,0.633-0.385,0.839-0.69c0.146-0.215,0.248-0.463,0.296-0.729h2.102l-0.845,1.02c-0.119,0.143-0.1,0.354,0.044,0.473
	c0.143,0.119,0.354,0.098,0.474-0.043l1.302-1.57c0-0.002,0.001-0.002,0.001-0.002c0.006-0.006,0.011-0.013,0.015-0.02
	c0.002-0.002,0.005-0.005,0.006-0.008c0.004-0.006,0.009-0.014,0.011-0.02c0.003-0.002,0.005-0.006,0.006-0.01
	c0.003-0.005,0.006-0.011,0.009-0.018c0.002-0.004,0.005-0.008,0.007-0.014c0.002-0.002,0.002-0.006,0.004-0.012
	s0.005-0.012,0.006-0.02l0.003-0.008c0.002-0.008,0.004-0.015,0.005-0.022c0.001-0.003,0.002-0.007,0.002-0.011
	c0.001-0.006,0.002-0.014,0.003-0.021c0-0.005,0-0.01,0.001-0.015V6C11.027,5.994,11.027,5.986,11.026,5.979"/>
</svg>
