<?xml version="1.0" encoding="utf-8"?>
<!-- Generator: Adobe Illustrator 16.0.0, SVG Export Plug-In . SVG Version: 6.00 Build 0)  -->
<!DOCTYPE svg PUBLIC "-//W3C//DTD SVG 1.1//EN" "http://www.w3.org/Graphics/SVG/1.1/DTD/svg11.dtd">
<svg version="1.1" id="Layer_1" xmlns="http://www.w3.org/2000/svg" xmlns:xlink="http://www.w3.org/1999/xlink" x="0px" y="0px"
	 width="12px" height="12px" viewBox="0 0 12 12" enable-background="new 0 0 12 12" xml:space="preserve">
<path fill="#4E4E4F" d="M2.657,7.385c0.206,0.496-0.136,1.123-0.776,1.494c0.343,0.492,0.764,0.908,1.24,1.24
	c0.373-0.641,0.998-0.982,1.495-0.777c0.495,0.205,0.697,0.89,0.509,1.607c0.569,0.1,1.163,0.104,1.752,0
	c-0.19-0.717,0.011-1.4,0.508-1.607c0.497-0.205,1.123,0.137,1.496,0.777c0.49-0.343,0.906-0.765,1.238-1.24
	C9.479,8.506,9.137,7.881,9.343,7.385c0.206-0.497,0.889-0.698,1.605-0.51c0.103-0.57,0.105-1.163,0-1.751
	c-0.716,0.19-1.399-0.011-1.605-0.508C9.137,4.119,9.479,3.493,10.12,3.121C9.776,2.628,9.354,2.213,8.881,1.881
	C8.508,2.522,7.882,2.864,7.385,2.658s-0.698-0.89-0.508-1.606C6.306,0.951,5.713,0.947,5.125,1.05
	c0.188,0.717-0.013,1.401-0.509,1.607C4.119,2.864,3.493,2.521,3.121,1.88C2.63,2.223,2.213,2.645,1.882,3.121
	c0.64,0.373,0.981,0.998,0.775,1.495c-0.205,0.497-0.89,0.698-1.604,0.508C0.95,5.694,0.946,6.287,1.051,6.875
	C1.768,6.687,2.452,6.888,2.657,7.385 M6,3.728c1.253,0,2.271,1.02,2.271,2.271c0,1.254-1.019,2.273-2.271,2.273
	c-1.252,0-2.271-1.02-2.271-2.273C3.729,4.748,4.748,3.728,6,3.728"/>
</svg>
