<?xml version="1.0" encoding="utf-8"?>
<!-- Generator: Adobe Illustrator 16.0.0, SVG Export Plug-In . SVG Version: 6.00 Build 0)  -->
<!DOCTYPE svg PUBLIC "-//W3C//DTD SVG 1.1//EN" "http://www.w3.org/Graphics/SVG/1.1/DTD/svg11.dtd">
<svg version="1.1" id="Layer_1" xmlns="http://www.w3.org/2000/svg" xmlns:xlink="http://www.w3.org/1999/xlink" x="0px" y="0px"
	 width="12px" height="12px" viewBox="0 0 12 12" enable-background="new 0 0 12 12" xml:space="preserve">
<path fill="#4E4E4F" d="M11.037,3.326c-0.002,0.079-0.041,0.155-0.108,0.208L8.416,5.5C8.321,5.573,8.217,5.574,8.153,5.51
	C8.128,5.482,8.096,5.433,8.099,5.341l0.021-0.856C8.088,4.482,8.053,4.48,8.018,4.478C7.983,4.475,7.948,4.471,7.912,4.468
	c-0.084-0.011-0.168-0.012-0.27-0.012H7.616c-0.047,0-0.095,0-0.146-0.002L7.389,4.46C7.256,4.469,7.118,4.478,6.984,4.505
	c-0.021,0.004-0.039,0.007-0.057,0.01C6.901,4.52,6.876,4.522,6.85,4.528L6.722,4.564C6.705,4.568,6.687,4.573,6.669,4.578
	C6.643,4.584,6.616,4.591,6.592,4.601L6.46,4.65C6.306,4.707,6.151,4.789,5.943,4.926l-0.18,0.14L5.588,5.234L5.423,5.42l-0.148,0.2
	C5.255,5.655,5.231,5.69,5.21,5.727C5.168,5.79,5.13,5.85,5.097,5.915C4.978,6.123,4.888,6.348,4.805,6.563
	c-0.089,0.258-0.149,0.466-0.19,0.654C4.568,7.41,4.53,7.613,4.5,7.836C4.441,8.248,4.425,8.582,4.423,8.789
	C4.418,9.018,4.425,9.15,4.425,9.152L4.464,9.82l-0.22-0.631C4.242,9.184,4.197,9.055,4.137,8.822
	C4.082,8.611,4.003,8.27,3.941,7.834C3.909,7.594,3.889,7.371,3.88,7.152C3.866,6.934,3.868,6.686,3.885,6.375
	C3.908,6.116,3.938,5.817,4.011,5.52c0.019-0.1,0.05-0.204,0.08-0.303c0.014-0.044,0.026-0.089,0.04-0.134L4.255,4.75l0.153-0.327
	l0.185-0.318L4.809,3.8c0.239-0.293,0.468-0.519,0.7-0.695l0.187-0.143c0.047-0.034,0.094-0.063,0.138-0.09l0.061-0.038l0.194-0.119
	c0.047-0.027,0.093-0.05,0.139-0.072l0.099-0.049C6.44,2.537,6.56,2.479,6.676,2.438c0.036-0.013,0.072-0.028,0.106-0.041
	c0.086-0.034,0.175-0.068,0.259-0.095c0.05-0.015,0.098-0.029,0.145-0.042c0.182-0.054,0.354-0.104,0.507-0.131l0.097-0.02
	c0.148-0.03,0.277-0.056,0.39-0.069L8.2,1.171c0.003-0.145,0.089-0.209,0.173-0.209c0.05,0,0.102,0.022,0.151,0.064l2.415,2.087
	C11.005,3.169,11.039,3.247,11.037,3.326 M9.234,6.251v3.645c0,0.125-0.104,0.229-0.228,0.229H2.104
	c-0.124,0-0.228-0.104-0.228-0.229V2.993c0-0.124,0.104-0.228,0.228-0.228h2.699l0.049-0.104C4.858,2.647,4.865,2.634,4.874,2.62
	l0.148-0.258l0.075-0.127c0.008-0.013,0.016-0.026,0.025-0.039l0.088-0.125l0.156-0.218H2.104c-0.628,0-1.141,0.512-1.141,1.14
	v6.903c0,0.627,0.513,1.141,1.141,1.141h6.903c0.627,0,1.141-0.514,1.141-1.141V6.251H9.234z"/>
</svg>
