<?xml version="1.0" encoding="utf-8"?>
<!-- Generator: Adobe Illustrator 16.0.0, SVG Export Plug-In . SVG Version: 6.00 Build 0)  -->
<!DOCTYPE svg PUBLIC "-//W3C//DTD SVG 1.1//EN" "http://www.w3.org/Graphics/SVG/1.1/DTD/svg11.dtd">
<svg version="1.1" id="Layer_1" xmlns="http://www.w3.org/2000/svg" xmlns:xlink="http://www.w3.org/1999/xlink" x="0px" y="0px"
	 width="12px" height="12px" viewBox="0 0 12 12" enable-background="new 0 0 12 12" xml:space="preserve">
<path fill="#4E4E4F" d="M9.089,0.974h-0.61H7.186H7.178H4.821H4.814H3.522H2.91H0.975v0.654v2.357c0,0.142,0.04,0.258,0.121,0.346
	S1.28,4.464,1.408,4.464c0.123,0,0.226-0.041,0.306-0.121C1.795,4.262,1.849,4.15,1.872,4.008l0.074-0.449
	C2.02,3.102,2.162,2.706,2.373,2.372C2.506,2.166,2.686,1.996,2.91,1.865c0,0,0.344-0.165,0.609-0.211
	c0.244-0.042,1.205-0.027,1.295-0.026v0.267v0.95v2.014v4.769c0,0.191-0.036,0.328-0.11,0.412c-0.035,0.049-0.068,0.08-0.103,0.092
	c-0.035,0.013-0.148,0.043-0.339,0.093c-0.236,0.054-0.354,0.188-0.354,0.403c0,0.027,0.003,0.05,0.008,0.072
	c0.018,0.096,0.069,0.174,0.158,0.228c0.012,0.007,0.027,0.013,0.041,0.019c0.092,0.053,0.24,0.079,0.443,0.08
	c0.002,0,0.004,0.002,0.006,0.002h0.007h0.236h0.007h1.178H6h0.007h1.179h0.008h0.234h0.008c0.002,0,0.004-0.002,0.006-0.002
	c0.203-0.001,0.351-0.027,0.443-0.08c0.014-0.006,0.028-0.012,0.041-0.019c0.09-0.054,0.141-0.132,0.157-0.228
	c0.005-0.022,0.008-0.045,0.008-0.072c0-0.215-0.118-0.35-0.354-0.403c-0.191-0.05-0.304-0.08-0.339-0.093
	c-0.033-0.012-0.068-0.043-0.103-0.092c-0.073-0.084-0.11-0.221-0.11-0.412V4.858V2.845v-0.95V1.628
	c0.09-0.001,1.051-0.016,1.295,0.026C8.746,1.7,9.089,1.865,9.089,1.865c0.226,0.131,0.405,0.301,0.538,0.507
	c0.211,0.334,0.354,0.729,0.428,1.187l0.072,0.449c0.025,0.143,0.078,0.254,0.159,0.335c0.081,0.08,0.183,0.121,0.305,0.121
	c0.128,0,0.232-0.045,0.313-0.133s0.121-0.204,0.121-0.346V1.628V0.974H9.089z"/>
</svg>
