<?xml version="1.0" encoding="utf-8"?>
<!-- Generator: Adobe Illustrator 16.0.0, SVG Export Plug-In . SVG Version: 6.00 Build 0)  -->
<!DOCTYPE svg PUBLIC "-//W3C//DTD SVG 1.1//EN" "http://www.w3.org/Graphics/SVG/1.1/DTD/svg11.dtd">
<svg version="1.1" id="Capa_1" xmlns="http://www.w3.org/2000/svg" xmlns:xlink="http://www.w3.org/1999/xlink" x="0px" y="0px"
	 width="50px" height="50px" viewBox="0 0 50 50" enable-background="new 0 0 50 50" xml:space="preserve">
<path fill="#FFFFFF" d="M50,39.285c0,1.633-1.323,2.956-2.955,2.956H2.956C1.323,42.241,0,40.918,0,39.285V10.714
	c0-1.632,1.323-2.956,2.956-2.956h44.089c1.632,0,2.955,1.323,2.955,2.956V39.285L50,39.285z"/>
<path fill="#F8A433" d="M11.098,25.199l-1.174-5.632c-0.201-0.777-0.785-1.008-1.515-1.039H3.027l-0.048,0.257
	C7.171,19.802,9.945,22.254,11.098,25.199z"/>
<g>
	<polygon fill="#0066B1" points="23.57,18.642 20.092,18.642 17.92,31.389 21.392,31.389 	"/>
	<path fill="#0066B1" d="M13.217,31.376l5.47-12.726h-3.681l-3.403,8.694l-0.363-1.313c-0.667-1.579-2.573-3.852-4.811-5.282
		L9.54,31.38L13.217,31.376z"/>
	<path fill="#0066B1" d="M33.489,27.222c0.013-1.447-0.916-2.551-2.919-3.463c-1.217-0.589-1.958-0.981-1.949-1.579
		c0-0.528,0.628-1.095,1.988-1.095c1.14-0.018,1.959,0.231,2.601,0.488l0.314,0.144l0.472-2.761
		c-0.689-0.257-1.768-0.532-3.115-0.532c-3.434,0-5.85,1.728-5.872,4.206c-0.021,1.832,1.728,2.853,3.046,3.463
		c1.352,0.622,1.805,1.021,1.797,1.579c-0.009,0.854-1.078,1.244-2.076,1.244c-1.393,0-2.129-0.192-3.273-0.669l-0.444-0.204
		l-0.488,2.856c0.811,0.354,2.311,0.664,3.87,0.677C31.09,31.576,33.463,29.871,33.489,27.222z"/>
	<path fill="#0066B1" d="M37.621,29.479c0.396,0,3.943,0.004,4.449,0.004c0.104,0.443,0.423,1.91,0.423,1.91h3.224l-2.813-12.738
		h-2.683c-0.834,0-1.453,0.227-1.819,1.056L33.24,31.393h3.652C36.893,31.393,37.485,29.822,37.621,29.479z M40.002,23.305
		c-0.018,0.035,0.288-0.737,0.463-1.217l0.235,1.1c0,0,0.663,3.045,0.803,3.682h-2.884C38.907,26.137,40.002,23.305,40.002,23.305z"
		/>
	<path fill="#0066B1" d="M47.045,7.759H2.956C1.323,7.759,0,9.082,0,10.714v3.068h50v-3.068C50,9.082,48.677,7.759,47.045,7.759z"/>
</g>
<path fill="#F8A433" d="M47.045,42.241H2.956C1.323,42.241,0,40.918,0,39.285v-3.067h50v3.067
	C50,40.918,48.677,42.241,47.045,42.241z"/>
<path opacity="0.15" fill="#202121" enable-background="new    " d="M2.101,39.285V10.714c0-1.632,1.324-2.956,2.956-2.956H2.956
	C1.323,7.759,0,9.082,0,10.714v28.571c0,1.633,1.323,2.956,2.956,2.956h2.102C3.425,42.241,2.101,40.918,2.101,39.285z"/>
</svg>
