<?xml version="1.0" encoding="utf-8"?>
<!-- Generator: Adobe Illustrator 16.0.0, SVG Export Plug-In . SVG Version: 6.00 Build 0)  -->
<!DOCTYPE svg PUBLIC "-//W3C//DTD SVG 1.1//EN" "http://www.w3.org/Graphics/SVG/1.1/DTD/svg11.dtd">
<svg version="1.1" id="Layer_1" xmlns="http://www.w3.org/2000/svg" xmlns:xlink="http://www.w3.org/1999/xlink" x="0px" y="0px"
	 width="44.166px" height="58.651px" viewBox="0 0 44.166 58.651" enable-background="new 0 0 44.166 58.651" xml:space="preserve">
<g>
	<g id="template">
		<circle fill="#E95554" cx="22.851" cy="7.38" r="2.193"/>
		<circle fill="#E95554" cx="27.603" cy="14.324" r="2.19"/>
		<circle fill="#E95554" cx="32.079" cy="21.359" r="2.192"/>
		<circle fill="#E95554" cx="36.83" cy="29.396" r="2.19"/>
		<path fill="#E95554" d="M29.887,36.976c0,1.212,0.98,2.192,2.188,2.192c1.212,0,2.192-0.98,2.192-2.192
			c0-1.207-0.98-2.192-2.192-2.192C30.867,34.783,29.887,35.769,29.887,36.976z"/>
		<path fill="#E95554" d="M25.134,43.922c0,1.207,0.98,2.188,2.192,2.188s2.192-0.98,2.192-2.188c0-1.212-0.98-2.192-2.192-2.192
			S25.134,42.71,25.134,43.922z"/>
		<path fill="#E95554" d="M20.658,50.957c0,1.208,0.981,2.188,2.188,2.188c1.212,0,2.192-0.98,2.192-2.188
			c0-1.212-0.98-2.192-2.192-2.192C21.64,48.765,20.658,49.745,20.658,50.957z"/>
    <animate
      attributeName="opacity"
      dur="1s"
      values="0;1;0"
      repeatCount="indefinite"
      begin="0.3"/>    
	</g>
	<g id="template1">
		<circle fill="#E95554" cx="15.359" cy="7.38" r="2.19"/>
		<circle fill="#E95554" cx="20.11" cy="14.324" r="2.192"/>
		<circle fill="#E95554" cx="24.587" cy="21.359" r="2.19"/>
		<circle fill="#E95554" cx="29.339" cy="29.396" r="2.192"/>
		<path fill="#E95554" d="M22.393,36.976c0,1.212,0.98,2.192,2.192,2.192s2.192-0.98,2.192-2.192c0-1.207-0.98-2.192-2.192-2.192
			S22.393,35.769,22.393,36.976z"/>
		<path fill="#E95554" d="M17.645,43.922c0,1.207,0.98,2.188,2.188,2.188c1.212,0,2.192-0.98,2.192-2.188
			c0-1.212-0.98-2.192-2.192-2.192C18.625,41.729,17.645,42.71,17.645,43.922z"/>
		<path fill="#E95554" d="M13.165,50.957c0,1.208,0.98,2.188,2.192,2.188s2.192-0.98,2.192-2.188c0-1.212-0.98-2.192-2.192-2.192
			S13.165,49.745,13.165,50.957z"/>
    <animate
      attributeName="opacity"
      dur="1s"
      values="0;1;0"
      repeatCount="indefinite" 
      begin="0.2"/>    
	</g>
	<g id="template2">
		<circle fill="#E95554" cx="7.504" cy="7.38" r="2.192"/>
		<circle fill="#E95554" cx="12.255" cy="14.324" r="2.19"/>
		<circle fill="#E95554" cx="16.732" cy="21.359" r="2.193"/>
		<circle fill="#E95554" cx="21.483" cy="29.396" r="2.19"/>
		<path fill="#E95554" d="M14.539,36.976c0,1.212,0.981,2.192,2.188,2.192c1.212,0,2.192-0.98,2.192-2.192
			c0-1.207-0.98-2.192-2.192-2.192C15.521,34.783,14.539,35.769,14.539,36.976z"/>
		<path fill="#E95554" d="M9.786,43.922c0,1.207,0.98,2.188,2.192,2.188s2.192-0.98,2.192-2.188c0-1.212-0.98-2.192-2.192-2.192
			S9.786,42.71,9.786,43.922z"/>
		<path fill="#E95554" d="M5.312,50.957c0,1.208,0.98,2.188,2.188,2.188c1.212,0,2.192-0.98,2.192-2.188
			c0-1.212-0.98-2.192-2.192-2.192C6.292,48.765,5.312,49.745,5.312,50.957z"/>
     <animate
      attributeName="opacity"
      dur="1s"
      values="0;1;0"
      repeatCount="indefinite"
      begin="0.1"/>
	</g>
</g>
</svg>

